<?xml version="1.0" encoding="utf-8"?>
<!-- Generator: Adobe Illustrator 27.5.0, SVG Export Plug-In . SVG Version: 6.00 Build 0)  -->
<svg version="1.1" id="Layer_1" xmlns="http://www.w3.org/2000/svg" xmlns:xlink="http://www.w3.org/1999/xlink" x="0px" y="0px"
	 viewBox="0 0 2834.646 2834.646" style="enable-background:new 0 0 2834.646 2834.646;" xml:space="preserve">
<g>
	<rect y="0" style="fill:#FFF6E1;" width="2834.646" height="2834.646"/>
	<ellipse style="fill:#E5B08C;" cx="1427.732" cy="2566.81" rx="652.03" ry="191.263"/>
	<g>
		<path style="fill:#FF4F33;" d="M889.623,1133.306l53.585-85.798c-10.479-10.375-22.331-20.232-35.576-29.541
			c-18.114,34.68-41.741,72.873-64.641,109.892c-5.043,8.152-10.102,16.33-15.118,24.494c9.647,4.267,20.365,5.323,30.845,2.935
			C871.632,1152.346,882.608,1144.539,889.623,1133.306z"/>
		<path style="fill:#F2A286;" d="M1725.56,1988.422c4.032-8.92,31.305-70.083,57.119-148.898
			c25.571-78.069,54.911-189.917,49.48-279.414c-9.737-160.42,35.577-395.71,43.439-434.954l-357.947-182.994
			c-2.204-1.127-3.71-3.268-4.025-5.723c-20.482-159.485-77.004-577.336-95.344-619.19c-32.641-24.202-70.033-32.61-102.847-23.066
			c-23.874,6.943-42.246,23.181-50.553,44.629c-13.203,146.39,27.275,439.978,27.687,442.933c0.01,0.071,0.019,0.142,0.027,0.213
			c16.414,149.144-14.637,184.501-34.607,192.302c-16.687,6.519-35.541-1.652-50.433-21.852
			c-33.249-45.103-95.49-171.045-98.123-176.385c-0.072-0.144-0.138-0.29-0.2-0.439C1062.471,663.07,984.068,481.017,968.677,461.6
			c-34.157-14.742-69.456-11.996-97.076,7.529c-22.11,15.63-34.75,39.129-32.988,61.326c0.009,0.108,0.015,0.216,0.019,0.325
			c2.854,79.581,83.664,339.555,108.363,417.338c5.969,18.799,4.667,38.754-3.666,56.19c-3.112,6.512-6.491,11.166-10.227,14.064
			c8.956,7.232,17.198,14.751,24.732,22.547c0.215,0.199,0.419,0.408,0.606,0.628c32.913,34.295,52.084,73.966,57.159,118.496
			c3.757,32.972-0.286,68.695-12.018,106.179c-6.678,21.339-15.863,43.291-27.381,65.536c9.211,7.24,28.436,24.478,47.718,54.95
			c23.845,37.683,52.354,103.837,52.759,204.999c0.016,4.142-3.328,7.513-7.47,7.53c-1.044,0.005-2.038-0.205-2.943-0.586
			c-2.686-1.133-4.575-3.784-4.588-6.883c-0.388-97.053-27.358-160.271-49.914-196.214c-16.868-26.88-33.844-42.93-42.797-50.33
			c-2.397,4.301-4.871,8.609-7.439,12.924c-31.578,53.073-64.63,88.287-66.022,89.761c-2.844,3.009-7.588,3.143-10.6,0.302
			c-3.011-2.843-3.147-7.589-0.305-10.601c0.331-0.351,33.479-35.697,64.213-87.427c28.087-47.276,59.888-118.354,51.878-188.487
			c-4.361-38.184-20.067-72.612-46.833-102.921l-51.511,82.478c-9.148,14.647-23.458,24.826-40.295,28.661
			c-13.292,3.029-26.877,1.812-39.186-3.379c-0.966-0.407-1.921-0.847-2.87-1.303c-45.479,74.715-84.739,146.584-72.255,185.364
			c23.516,73.053,47.055,221.636,46.642,294.414c-0.182,32.186,22.293,69.756,64.995,108.648
			c38.143,34.739,89.548,67.917,144.748,93.42c107.79,49.803,129.859,237.044,116.007,382.255
			c-4.54,47.572,9.561,79.907,39.706,90.973c19.502,7.178,44.178,5.06,69.48-5.965c26.332-11.474,50.386-31.455,67.733-56.264
			c19.12-27.344,40.453-42.505,65.218-46.352c49.171-7.635,99.9,31.123,153.607,72.157c5.121,3.912,10.25,7.831,15.384,11.711
			c30.597,23.125,69.248,25.1,103.396,5.281c45.224-26.247,69.644-80.455,62.214-138.102
			C1681.933,2046.873,1702.646,2012.68,1725.56,1988.422z"/>
		<path style="fill:#FFCDA7;" d="M949.056,956.056c10.513-25.004,11.699-61.54,11.699-61.54s-5.859-18.476-25.815-71.612
			c-19.956-53.136-41.543-122.494-25.19-131.131s19.093-17.367,3.058-12.832c-16.035,4.535-20.156,0.914-5.003-8.229
			c15.154-9.143,37.838-16.052,20.566-18.628c-17.272-2.577-35.04,17.231-48.482-22.33c-13.442-39.562-21.797-105.693,7.466-137.129
			c17.355-18.644,16.82-30.593,13.511-37.231c-10.37,2.771-20.23,7.351-29.265,13.738c-22.11,15.63-34.75,39.129-32.988,61.326
			c0.009,0.108,0.015,0.216,0.019,0.325c2.854,79.581,83.664,339.555,108.363,417.338
			C947.829,950.745,948.505,953.395,949.056,956.056z"/>
		<path style="fill:#D26159;" d="M1696.87,2162.773c-14.937-115.9,5.776-150.093,28.69-174.351
			c4.032-8.92,31.305-70.083,57.119-148.898c14.901-45.494,31.07-102.46,40.905-159.788c-40.82-44.745-83.222-78.287-124.993-93.685
			c-106.33-39.196-476.337-55.91-476.337-55.91s-93.386,22.751-21.394,102.07c71.991,79.318,295.547,91.696,364.646,222.517
			c69.099,130.821-95.059,147.26-179.974,78.496c-84.916-68.765-76.813,32.565-201.551-8.746
			c-108.849-36.049-141.824-88.839-255.728-118.795c23.718,15.117,49.355,29.144,75.874,41.396
			c107.79,49.803,129.859,237.044,116.007,382.255c-4.54,47.572,9.561,79.907,39.706,90.973c19.502,7.178,44.178,5.06,69.48-5.965
			c26.332-11.474,50.386-31.455,67.733-56.264c2.734-3.91,5.514-7.561,8.342-10.975c41.253-154.476,89.514-292.166,85.414-199.149
			c-5.438,123.392,61.642-65.795,64.065-1.224c2.423,64.571,193.891-94.751,193.649,100.03
			c-0.096,77.275-17.184,127.377-36.546,163.925c7.686-2.254,15.289-5.519,22.681-9.809
			C1679.88,2274.628,1704.3,2220.42,1696.87,2162.773z"/>
		<path style="fill:#FFCDA7;" d="M1011.928,1806.724c-33.103-21.964-58.185-16.066-116.697-49.217
			c-58.511-33.15,18.056-78.529,39.897-152.637c21.841-74.108-38.805-92.154-62.992-69.404
			c-24.188,22.75-35.785,65.874-49.669,28.479c-13.885-37.395-17.528-66.705-24.801-113.08
			c-7.273-46.375-29.866-122.277-18.405-149.453c11.462-27.176,40.159-97.451,57.455-100.513
			c17.296-3.061,41.093-4.793,65.96-38.084c20.978-28.084,32.886-61.668,28.731-68.093l-29.059,46.528
			c-9.148,14.647-23.458,24.826-40.295,28.661c-13.292,3.029-26.877,1.812-39.186-3.379c-0.966-0.407-1.921-0.847-2.87-1.303
			c-45.479,74.715-84.739,146.584-72.255,185.364c23.516,73.053,47.055,221.636,46.642,294.414
			c-0.182,32.186,22.293,69.756,64.995,108.648c32.847,29.916,75.534,58.669,122.005,82.365
			C1020.262,1842.937,1035.424,1822.313,1011.928,1806.724z"/>
		<path style="fill:#FFCDA7;" d="M1264.883,338.813c-13.203,146.39,27.275,439.978,27.687,442.933
			c0.01,0.071,0.019,0.142,0.027,0.213c14.408,6.505,35.539,16.443,26.111-25.192c-9.429-41.635-22.337-194.261-14.992-199.401
			c7.346-5.14,66.644-3.432,58.245-13.094c-8.4-9.662-31.012-0.134-54.216-4.272c-23.204-4.138-20.21-33.001,3.168-38.205
			c23.378-5.204,48.422-17.707,19.68-14.295c-28.742,3.412-46.413,0.667-47.033-17.953c-0.62-18.62-5.667-93.712,6.512-124.822
			c10.185-26.017,55.762-46.976,71.35-52.748c-15.688-2.729-31.296-2.066-45.986,2.207
			C1291.561,301.127,1273.189,317.365,1264.883,338.813z"/>
		<path style="fill:#D26159;" d="M1049.963,927.432c0,0,27.861-8.02,59.565-40.781c8.89-9.186,18.372-30.485,26.828-57.643
			c-14.875-28.601-25.849-50.808-26.922-52.984c-0.072-0.144-0.138-0.29-0.2-0.439C1062.471,663.07,984.068,481.017,968.677,461.6
			c-11.208-4.837-22.539-7.779-33.681-8.875c-14.52,9.493-25.452,42.326,0.288,143.903
			C980.161,773.721,1049.963,927.432,1049.963,927.432z"/>
		<path style="fill:#D26159;" d="M1513.626,936.439c-20.482-159.485-77.004-577.336-95.344-619.19
			c-2.845-2.11-5.728-4.091-8.64-5.96c-13.312,2.843-52.655,15.601-55.758,67.409c-3.74,62.442,80.524,521.169,89.912,549.135
			c7.56,22.522,48.634,54.58,71.528,12.458C1514.416,939.209,1513.811,937.881,1513.626,936.439z"/>
		<path style="fill:#00030F;" d="M1737.285,1997.858c0.575-0.601,1.046-1.293,1.393-2.048c0.298-0.647,30.115-65.73,58.201-151.448
			c37.823-115.433,54.731-211.375,50.252-285.16c-10.476-172.593,43.742-433.973,44.29-436.593c0.693-3.311-0.915-6.676-3.926-8.216
			l-359.497-183.787c-3.136-24.266-20.369-156.948-39.631-292.25c-43.074-302.55-53.944-322.873-57.516-329.552
			c-0.51-0.953-1.219-1.784-2.08-2.437c-36.792-27.919-79.628-37.607-117.523-26.586c-28.816,8.381-50.966,28.324-60.77,54.719
			c-0.23,0.619-0.377,1.265-0.438,1.922c-13.548,146.74,26.692,440.293,27.659,447.288c12.959,117.879-4.5,168.508-25.167,176.581
			c-9.982,3.898-22.28-2.375-32.901-16.782c-31.843-43.195-93.693-167.949-96.64-173.907c-1.925-4.63-32.174-77.287-64.256-151.272
			c-67.256-155.104-76.661-164.623-80.202-168.207c-0.656-0.664-1.43-1.199-2.282-1.579c-39.535-17.611-80.863-14.596-113.308,8.339
			c-26.358,18.633-41.402,47.203-39.295,74.599c3.026,81.669,84.223,342.989,109.051,421.178c4.811,15.152,3.78,31.198-2.903,45.182
			c-3.065,6.413-5.448,8.401-6.304,8.948c-1.702-0.439-3.483-0.256-5.034,0.465c-3.079-2.2-6.233-4.376-9.454-6.518
			c-1.786-1.187-3.993-1.554-6.066-1.007c-2.073,0.547-3.813,1.954-4.78,3.867c-18.25,36.078-43.501,76.897-67.922,116.372
			c-58.346,94.315-113.455,183.4-96.773,235.224c23.151,71.923,46.326,218.142,45.92,289.732
			c-0.207,36.556,23.962,77.989,69.895,119.823c39.245,35.745,92.004,69.82,148.557,95.949
			c45.011,20.796,78.237,72.169,96.085,148.562c19.856,84.99,15.591,173.472,11.281,218.651c-2.695,28.249,0.599,51.95,9.791,70.446
			c8.002,16.101,20.572,28.063,36.486,34.774c1.046,0.441,2.106,0.859,3.18,1.255c47.872,17.619,115.819-12.123,154.687-67.711
			c16.651-23.815,34.716-36.94,55.227-40.125c42.847-6.655,91.105,30.217,142.198,69.253c5.141,3.929,10.291,7.864,15.446,11.76
			c35.579,26.887,80.425,29.239,119.97,6.287c23.206-13.468,42.843-35.035,55.296-60.727c13.518-27.887,18.449-59.792,14.265-92.265
			C1696.268,2040.75,1720.951,2014.938,1737.285,1997.858z M842.992,1127.859c22.9-37.018,46.527-75.212,64.641-109.892
			c13.245,9.309,25.096,19.166,35.576,29.541l-53.585,85.798c-7.016,11.233-17.991,19.04-30.904,21.982
			c-10.48,2.388-21.198,1.332-30.845-2.935C832.89,1144.188,837.949,1136.011,842.992,1127.859z M1634.656,2300.875
			c-34.147,19.819-72.799,17.845-103.396-5.281c-5.134-3.88-10.263-7.8-15.384-11.711c-53.708-41.034-104.436-79.792-153.607-72.157
			c-24.765,3.846-46.098,19.008-65.218,46.352c-17.347,24.809-41.401,44.79-67.733,56.264c-25.302,11.024-49.978,13.143-69.48,5.965
			c-30.145-11.066-44.245-43.402-39.706-90.973c13.852-145.21-8.217-332.452-116.007-382.255
			c-55.2-25.503-106.605-58.681-144.748-93.42c-42.703-38.892-65.177-76.463-64.995-108.648
			c0.413-72.778-23.126-221.361-46.642-294.414c-12.484-38.78,26.776-110.65,72.255-185.364c0.949,0.456,1.904,0.895,2.87,1.303
			c12.309,5.191,25.894,6.408,39.186,3.379c16.837-3.836,31.147-14.015,40.295-28.661l51.511-82.478
			c26.766,30.308,42.472,64.737,46.833,102.921c8.01,70.133-23.791,141.21-51.878,188.487
			c-30.734,51.73-63.881,87.076-64.213,87.427c-2.842,3.012-2.706,7.758,0.305,10.601c3.012,2.841,7.756,2.707,10.6-0.302
			c1.392-1.473,34.444-36.688,66.022-89.761c2.568-4.315,5.042-8.624,7.439-12.924c8.952,7.401,25.928,23.451,42.797,50.33
			c22.557,35.943,49.526,99.161,49.914,196.214c0.013,3.099,1.902,5.751,4.588,6.883c0.904,0.381,1.899,0.591,2.943,0.586
			c4.142-0.017,7.486-3.387,7.47-7.53c-0.405-101.162-28.914-167.316-52.759-204.999c-19.282-30.472-38.506-47.71-47.718-54.95
			c11.518-22.244,20.702-44.196,27.381-65.536c11.732-37.484,15.775-73.207,12.018-106.179c-5.075-44.53-24.246-84.2-57.159-118.496
			c-0.188-0.22-0.391-0.428-0.606-0.628c-7.534-7.796-15.776-15.315-24.732-22.547c3.736-2.897,7.115-7.552,10.227-14.064
			c8.333-17.436,9.635-37.391,3.666-56.19c-24.699-77.783-105.508-337.757-108.363-417.338c-0.004-0.109-0.01-0.217-0.019-0.325
			c-1.762-22.198,10.878-45.696,32.988-61.326c27.62-19.525,62.919-22.271,97.076-7.529
			c15.391,19.417,93.794,201.469,140.557,313.985c0.062,0.148,0.128,0.294,0.2,0.439c2.633,5.339,64.874,131.281,98.123,176.385
			c14.892,20.2,33.746,28.371,50.433,21.852c19.97-7.801,51.021-43.158,34.607-192.302c-0.008-0.071-0.017-0.142-0.027-0.213
			c-0.412-2.956-40.89-296.543-27.687-442.933c8.307-21.448,26.678-37.686,50.553-44.629c32.814-9.544,70.206-1.136,102.847,23.066
			c18.34,41.853,74.862,459.705,95.344,619.19c0.315,2.455,1.821,4.596,4.025,5.723l357.947,182.994
			c-7.861,39.244-53.176,274.534-43.439,434.954c5.431,89.497-23.909,201.345-49.48,279.414
			c-25.814,78.815-53.087,139.978-57.119,148.898c-22.914,24.258-43.626,58.451-28.69,174.351
			C1704.3,2220.42,1679.88,2274.628,1634.656,2300.875z"/>
		<g>
			<path style="fill:#FFAA47;" d="M2071.612,1226.176c-95.795-40.401-206.598,4.664-246.999,100.459s4.664,206.598,100.459,246.999
				c88.302,37.242,189.357,1.863,236.269-78.928c0.016-0.028,0.032-0.056,0.048-0.084c0.714-1.231,1.412-2.474,2.1-3.725
				c0.124-0.224,0.247-0.448,0.37-0.674c0.687-1.262,1.364-2.533,2.025-3.816c0.021-0.041,0.043-0.082,0.064-0.123
				c0.674-1.31,1.331-2.632,1.977-3.964c0.154-0.318,0.304-0.638,0.457-0.957c0.486-1.016,0.964-2.039,1.434-3.068
				c0.171-0.374,0.342-0.747,0.51-1.122c0.594-1.324,1.179-2.654,1.746-3.997l0.001-0.001c0.587-1.391,1.151-2.787,1.702-4.184
				c0.23-0.584,0.449-1.171,0.673-1.757c0.302-0.789,0.604-1.579,0.895-2.37c0.286-0.781,0.564-1.565,0.84-2.349
				c0.199-0.566,0.398-1.131,0.592-1.698c0.321-0.941,0.635-1.885,0.941-2.83c0.116-0.359,0.231-0.718,0.345-1.077
				c0.356-1.122,0.705-2.245,1.039-3.372c0.026-0.087,0.05-0.174,0.076-0.26c5.276-17.882,7.844-36.395,7.694-54.914
				c-0.009-0.978-0.016-1.956-0.041-2.932c-0.005-0.206-0.014-0.411-0.02-0.617
				C2184.768,1323.203,2141.814,1255.784,2071.612,1226.176z"/>
			<g>
				<g>
					
						<ellipse transform="matrix(0.2972 -0.9548 0.9548 0.2972 191.9269 2871.2129)" style="fill:#FF4F33;" cx="2046.432" cy="1305.227" rx="58.988" ry="58.988"/>
				</g>
				<g>
					
						<ellipse transform="matrix(0.4817 -0.8763 0.8763 0.4817 -308.1101 2500.3159)" style="fill:#FF4F33;" cx="1959.797" cy="1510.645" rx="58.988" ry="58.988"/>
				</g>
				<g>
					
						<ellipse transform="matrix(0.9809 -0.1945 0.1945 0.9809 -229.1393 395.7204)" style="fill:#FF4F33;" cx="1900.405" cy="1364.618" rx="58.988" ry="58.988"/>
				</g>
				<g>
					
						<ellipse transform="matrix(0.9809 -0.1945 0.1945 0.9809 -242.0675 437.3318)" style="fill:#FF4F33;" cx="2105.823" cy="1451.253" rx="58.988" ry="58.988"/>
				</g>
			</g>
			
				<ellipse transform="matrix(0.2142 -0.9768 0.9768 0.2142 -203.9636 2867.1978)" style="fill:#FFF6E1;" cx="1680.117" cy="1560.372" rx="129.777" ry="129.777"/>
			
				<ellipse transform="matrix(0.7071 -0.7071 0.7071 0.7071 -608.7592 1256.1542)" style="fill:#FFF6E1;" cx="1211.933" cy="1362.914" rx="129.777" ry="129.777"/>
			<path style="fill:#70ACA0;" d="M1919.242,1587.455c-103.415-43.615-152.066-163.234-108.451-266.649
				c43.616-103.416,163.234-152.066,266.65-108.451c47.805,20.162,83.895,56.57,104.591,100.106
				c6.245-48.097-2.129-78.999-10.582-96.749c-7.297-15.324-15.827-23.576-19.548-26.685l-201.834-85.124l0.047-0.11
				c-0.478-0.139-0.954-0.292-1.427-0.475l-292.376-113.49l-19.382-8.177l-285.037-130.028l-203.332-85.756
				c-4.79-0.49-16.659-0.846-32.745,4.63c-18.611,6.336-46.585,21.907-76.669,59.95c45.621-15.565,96.884-15.133,144.688,5.029
				c103.416,43.616,152.067,163.234,108.451,266.65c-43.616,103.416-163.234,152.066-266.65,108.45
				c-75.4-31.8-121.675-104.003-124.316-180.87c-65.405,98.726-189.755,291.274-223.656,377.869
				c-23.701,60.539-33.388,112.925-28.792,155.704c4.424,41.183,21.979,71.196,52.176,89.206
				c31.274,18.649,74.044,22.058,117.353,9.353c34.531-10.13,85.916-35.143,134.619-96.781
				c37.713-47.73,100.544-66.305,186.747-55.212c68.366,8.799,150.658,35.463,251.555,81.51
				c103.404,40.114,179.932,80.434,233.949,123.252c68.111,53.989,98.663,111.949,90.806,172.271
				c-10.147,77.898,7.805,132.155,24.652,163.954c21.13,39.882,53.424,68.13,88.608,77.51c33.975,9.055,67.72,0.677,100.3-24.899
				c33.843-26.567,64.596-70.069,91.408-129.296c38.352-84.72,89.446-308.162,114.494-423.908
				C2078.647,1601.998,1994.642,1619.255,1919.242,1587.455z M1739.984,1167.944l52.22,22.024
				c19.236,8.113,28.286,30.363,20.173,49.599c-8.113,19.236-30.363,28.286-49.599,20.173l-52.22-22.024
				c-19.236-8.113-28.285-30.363-20.172-49.599C1698.499,1168.881,1720.748,1159.831,1739.984,1167.944z M1398.953,1024.114
				l52.221,22.024c19.236,8.113,28.285,30.363,20.172,49.599c-8.113,19.236-30.363,28.286-49.599,20.173l-52.221-22.024
				c-19.236-8.113-28.285-30.363-20.172-49.599C1357.468,1025.051,1379.717,1016.001,1398.953,1024.114z M1155.672,1496.313
				c-73.556-31.022-108.16-116.104-77.138-189.66c31.022-73.556,116.103-108.16,189.659-77.137
				c73.556,31.022,108.159,116.103,77.137,189.659C1314.309,1492.731,1229.228,1527.335,1155.672,1496.313z M1515.733,1297.239
				l-0.315-0.134l-0.313-0.131c-33.009-13.922-48.538-52.102-34.616-85.111c13.921-33.009,52.102-48.537,85.111-34.616l0.341,0.145
				l0.287,0.12c33.009,13.921,48.537,52.102,34.616,85.111C1586.923,1295.631,1548.742,1311.16,1515.733,1297.239z
				 M1623.856,1693.77c-73.556-31.022-108.159-116.103-77.137-189.659s116.103-108.16,189.658-77.137
				c73.556,31.022,108.16,116.103,77.138,189.659C1782.494,1690.188,1697.412,1724.792,1623.856,1693.77z"/>
			<g>
				
					<ellipse transform="matrix(0.7071 -0.7071 0.7071 0.7071 -319.2682 1823.6111)" style="fill:#00030F;" cx="2041.659" cy="1297.196" rx="58.988" ry="58.988"/>
			</g>
			<g>
				
					<ellipse transform="matrix(0.9938 -0.1116 0.1116 0.9938 -155.4259 227.4792)" style="fill:#00030F;" cx="1955.024" cy="1502.614" rx="58.988" ry="58.988"/>
			</g>
			<g>
				
					<ellipse transform="matrix(0.989 -0.148 0.148 0.989 -179.9036 295.5022)" style="fill:#00030F;" cx="1895.633" cy="1356.588" rx="58.988" ry="58.988"/>
			</g>
			<g>
				
					<ellipse transform="matrix(0.989 -0.148 0.148 0.989 -190.4637 326.8591)" style="fill:#00030F;" cx="2101.05" cy="1443.223" rx="58.988" ry="58.988"/>
			</g>
			<g>
				
					<ellipse transform="matrix(0.7071 -0.7071 0.7071 0.7071 -611.2546 1645.0448)" style="fill:#00030F;" cx="1680.117" cy="1560.372" rx="89.837" ry="89.837"/>
			</g>
			<g>
				
					<ellipse transform="matrix(0.9992 -0.0404 0.0404 0.9992 -61.5989 69.0707)" style="fill:#FF4F33;" cx="1680.117" cy="1560.372" rx="62.653" ry="62.653"/>
			</g>
			<path style="fill:#FFF6E1;" d="M1639.421,1558.366c10.449-24.775,39.005-36.389,63.78-25.94
				c11.834,4.991,20.655,14.117,25.513,24.984c-1.104-17.875-12.056-34.467-29.677-41.898c-24.776-10.449-53.331,1.165-63.78,25.94
				c-5.458,12.942-4.886,26.91,0.427,38.796C1635.237,1572.989,1636.404,1565.521,1639.421,1558.366z"/>
			<g>
				<path style="fill:#00030F;" d="M1309.692,1362.72l-27.975-11.798c-10.926-4.608-16.047-17.2-11.439-28.126l11.799-27.975
					c4.608-10.926-0.514-23.518-11.439-28.126l-30.773-12.978c-10.926-4.608-23.518,0.514-28.126,11.439l-11.798,27.975
					c-4.608,10.925-17.2,16.047-28.126,11.439l-27.975-11.799c-10.926-4.608-23.518,0.514-28.126,11.439l-12.979,30.773
					c-4.608,10.926,0.514,23.518,11.439,28.126l27.975,11.799c10.925,4.608,16.047,17.2,11.439,28.126l-11.799,27.975
					c-4.608,10.926,0.514,23.518,11.439,28.126l30.773,12.978c10.926,4.608,23.518-0.514,28.126-11.439l11.799-27.975
					c4.608-10.926,17.2-16.047,28.126-11.439l27.975,11.798c10.926,4.608,23.518-0.514,28.126-11.439l12.978-30.773
					C1325.739,1379.92,1320.617,1367.328,1309.692,1362.72z"/>
			</g>
			<path style="fill:#FFAA47;" d="M1375.356,1080.065l52.22,22.024c11.615,4.899,25.05-0.566,29.949-12.181
				c4.899-11.615-0.565-25.05-12.181-29.948l-52.22-22.024c-11.615-4.899-25.05,0.565-29.949,12.181
				C1358.277,1061.731,1363.741,1075.166,1375.356,1080.065z"/>
			<path style="fill:#FFAA47;" d="M928.914,954.943c-0.409,1.056-0.809,2.113-1.198,3.172c-0.122,0.331-0.246,0.661-0.365,0.993
				c-0.503,1.392-0.992,2.787-1.459,4.184c-0.014,0.041-0.026,0.081-0.04,0.122c-0.459,1.373-0.898,2.749-1.323,4.127
				c-0.075,0.241-0.148,0.482-0.221,0.724c-0.416,1.368-0.82,2.738-1.204,4.11c-0.009,0.031-0.018,0.062-0.026,0.092
				c-25.113,89.985,20.085,187.046,108.387,224.287c95.795,40.401,206.598-4.664,247-100.458s-4.664-206.599-100.459-247
				c-70.207-29.61-148.473-13.309-201.181,35.22c-0.147,0.135-0.296,0.268-0.441,0.404c-0.723,0.67-1.434,1.354-2.147,2.036
				c-13.361,12.816-24.822,27.573-33.942,43.828c-0.043,0.077-0.087,0.153-0.13,0.23c-0.574,1.027-1.136,2.062-1.691,3.101
				c-0.177,0.332-0.354,0.664-0.529,0.997c-0.464,0.88-0.92,1.764-1.371,2.651c-0.27,0.533-0.536,1.07-0.801,1.606
				c-0.369,0.746-0.738,1.493-1.097,2.244c-0.363,0.759-0.717,1.525-1.071,2.292c-0.264,0.57-0.532,1.138-0.79,1.711
				c-0.616,1.37-1.221,2.748-1.808,4.139c-0.567,1.344-1.112,2.693-1.645,4.043C929.209,954.179,929.062,954.561,928.914,954.943z
				 M1150.966,913.406c60.444,25.492,88.88,95.407,63.387,155.852c-25.492,60.444-95.407,88.88-155.851,63.387
				c-60.444-25.492-88.88-95.407-63.387-155.851C1020.607,916.349,1090.522,887.913,1150.966,913.406z"/>
			<path style="fill:#FFAA47;" d="M1716.387,1223.895l52.22,22.024c11.615,4.898,25.05-0.566,29.949-12.181
				c4.899-11.615-0.566-25.05-12.18-29.948l-52.221-22.024c-11.615-4.898-25.05,0.565-29.948,12.181
				S1704.772,1218.996,1716.387,1223.895z"/>
			<path style="fill:#FFF6E1;" d="M1366.061,1056.668c4.899-11.615,18.333-17.079,29.948-12.181l52.22,22.024
				c4.399,1.855,7.914,4.937,10.32,8.679c-1.754-6.61-6.43-12.374-13.205-15.231l-52.22-22.024
				c-11.615-4.899-25.05,0.565-29.949,12.181c-3.043,7.216-2.085,15.133,1.861,21.27
				C1363.783,1066.663,1364.02,1061.508,1366.061,1056.668z"/>
			<path style="fill:#FFF6E1;" d="M1707.092,1200.498c4.899-11.615,18.334-17.079,29.949-12.181l52.22,22.024
				c4.399,1.855,7.914,4.937,10.319,8.679c-1.754-6.61-6.43-12.374-13.205-15.231l-52.221-22.024
				c-11.615-4.898-25.05,0.565-29.948,12.181c-3.043,7.216-2.085,15.132,1.861,21.27
				C1704.815,1210.493,1705.051,1205.338,1707.092,1200.498z"/>
			
				<ellipse transform="matrix(0.3606 -0.9327 0.9327 0.3606 -247.8115 1684.5677)" style="fill:#00030F;" cx="1104.734" cy="1023.025" rx="103.97" ry="103.97"/>
			
				<ellipse transform="matrix(0.4171 -0.9089 0.9089 0.4171 -285.8225 1600.4077)" style="fill:#FF4F33;" cx="1104.734" cy="1023.025" rx="81.341" ry="81.341"/>
			<path style="fill:#FFF6E1;" d="M1046.572,1017.989c14.749-34.972,55.056-51.365,90.028-36.616
				c16.704,7.045,29.155,19.927,36.013,35.267c-1.558-25.232-17.018-48.651-41.89-59.141c-34.972-14.749-75.279,1.644-90.028,36.616
				c-7.705,18.268-6.897,37.985,0.603,54.761C1040.665,1038.63,1042.313,1028.088,1046.572,1017.989z"/>
			<path style="fill:#FF4F33;" d="M2142.181,1166.048l4.663-11.057c1.119-2.653-0.13-5.723-2.783-6.843l-153.33-64.667
				c-7.429-3.133-16.021,0.362-19.154,7.79l-1.206,2.86c-0.249,0.591-0.534,1.155-0.838,1.702l171.892,72.496
				C2141.627,1167.562,2141.865,1166.799,2142.181,1166.048z"/>
			<path style="fill:#FF4F33;" d="M1343.228,829.633l1.206-2.86c3.133-7.428-0.362-16.02-7.79-19.153l-153.331-64.667
				c-2.654-1.119-5.723,0.129-6.842,2.783l-4.663,11.057c-0.317,0.751-0.697,1.454-1.105,2.133l171.892,72.495
				C1342.774,830.821,1342.979,830.224,1343.228,829.633z"/>
			<path style="fill:#FF4F33;" d="M1560.399,1191.333l-0.285-0.119l-0.343-0.146c-25.388-10.708-54.754,1.236-65.461,26.624
				c-10.708,25.388,1.236,54.754,26.624,65.461l0.312,0.13l0.316,0.135c25.388,10.708,54.753-1.236,65.461-26.624
				C1597.73,1231.406,1585.787,1202.04,1560.399,1191.333z"/>
			<path style="fill:#00030F;" d="M1369.527,1093.886l52.221,22.024c19.236,8.113,41.486-0.937,49.599-20.173
				c8.113-19.236-0.936-41.486-20.172-49.599l-52.221-22.024c-19.236-8.113-41.486,0.936-49.599,20.172
				C1341.242,1063.523,1350.291,1085.773,1369.527,1093.886z M1393.124,1037.935l52.22,22.024
				c11.615,4.899,17.079,18.333,12.181,29.948c-4.899,11.615-18.334,17.08-29.949,12.181l-52.22-22.024
				c-11.615-4.899-17.079-18.334-12.18-29.949C1368.074,1038.5,1381.509,1033.036,1393.124,1037.935z"/>
			<path style="fill:#00030F;" d="M1058.502,1132.645c60.444,25.492,130.359-2.943,155.851-63.387
				c25.493-60.445-2.943-130.359-63.387-155.852c-60.444-25.492-130.359,2.943-155.852,63.388
				C969.622,1037.238,998.058,1107.152,1058.502,1132.645z M1145.137,927.227c52.823,22.278,77.673,83.378,55.395,136.202
				c-22.278,52.823-83.378,77.674-136.201,55.395c-52.823-22.278-77.673-83.378-55.395-136.201
				C1031.214,929.799,1092.314,904.948,1145.137,927.227z"/>
			<path style="fill:#00030F;" d="M1566.228,1177.511l-0.287-0.12l-0.341-0.145c-33.009-13.922-71.19,1.607-85.111,34.616
				c-13.922,33.009,1.607,71.19,34.616,85.111l0.313,0.131l0.315,0.134c33.009,13.922,71.19-1.607,85.111-34.616
				C1614.766,1229.614,1599.237,1191.433,1566.228,1177.511z M1521.562,1283.418l-0.316-0.135l-0.312-0.13
				c-25.388-10.707-37.332-40.073-26.624-65.461c10.707-25.388,40.073-37.331,65.461-26.624l0.343,0.146l0.285,0.119
				c25.388,10.707,37.331,40.073,26.624,65.461C1576.316,1282.181,1546.95,1294.125,1521.562,1283.418z"/>
			<path style="fill:#00030F;" d="M1736.378,1426.974c-73.556-31.022-158.636,3.582-189.658,77.137s3.581,158.637,77.137,189.659
				c73.556,31.022,158.637-3.582,189.659-77.138C1844.538,1543.077,1809.934,1457.996,1736.378,1426.974z M1629.685,1679.949
				c-65.934-27.808-96.953-104.074-69.145-170.009c27.808-65.935,104.074-96.953,170.008-69.146
				c65.935,27.808,96.954,104.074,69.146,170.009C1771.886,1676.739,1695.621,1707.757,1629.685,1679.949z"/>
			<path style="fill:#00030F;" d="M1710.558,1237.716l52.22,22.024c19.236,8.113,41.486-0.937,49.599-20.173
				c8.113-19.236-0.936-41.486-20.173-49.599l-52.22-22.024c-19.236-8.113-41.486,0.936-49.599,20.172
				C1682.273,1207.353,1691.322,1229.603,1710.558,1237.716z M1734.155,1181.765l52.221,22.024
				c11.615,4.898,17.079,18.333,12.18,29.948c-4.899,11.615-18.334,17.079-29.949,12.181l-52.22-22.024
				c-11.615-4.899-17.079-18.334-12.18-29.949S1722.541,1176.867,1734.155,1181.765z"/>
			<path style="fill:#00030F;" d="M1268.194,1229.516c-73.556-31.022-158.637,3.581-189.659,77.137
				c-31.022,73.556,3.581,158.637,77.138,189.66c73.556,31.022,158.637-3.582,189.659-77.138
				C1376.353,1345.619,1341.75,1260.538,1268.194,1229.516z M1161.501,1482.492c-65.935-27.808-96.954-104.074-69.146-170.009
				c27.808-65.935,104.074-96.953,170.009-69.145c65.935,27.808,96.953,104.074,69.145,170.009
				C1303.702,1479.281,1227.436,1510.3,1161.501,1482.492z"/>
			<path style="fill:#FFF6E1;" d="M2039.292,1327.938c-0.74-0.099-1.841-0.35-3.303-0.754c-1.464-0.404-2.859-0.886-4.184-1.445
				c-2.773-1.17-4.657-2.513-5.648-4.033c-0.994-1.519-0.854-3.785,0.418-6.8l5.149-12.207c-0.567-2.865-1.152-6.025-1.756-9.474
				c-0.605-3.45-1.154-6.947-1.646-10.493c-0.494-3.545-0.885-6.994-1.174-10.348c-0.29-3.353-0.405-6.365-0.342-9.038
				c1.24-0.755,2.731-1.298,4.468-1.63c1.738-0.332,3.602-0.079,5.591,0.76c2.351,0.992,4.06,2.282,5.132,3.869
				c1.07,1.588,1.708,3.987,1.916,7.199l1.136,18.267l0.543,0.229c1.631-1.512,3.089-2.905,4.37-4.175
				c1.281-1.27,2.547-2.547,3.799-3.83c1.25-1.283,2.557-2.613,3.92-3.992c1.362-1.378,2.922-2.975,4.682-4.789
				c1.314-0.085,2.697,0.002,4.151,0.26c1.452,0.258,2.782,0.641,3.989,1.15c2.109,0.89,3.667,2.204,4.675,3.942
				c1.006,1.739,1.039,3.723,0.099,5.953c-0.305,0.723-0.825,1.534-1.558,2.432c-0.735,0.898-2.082,2.157-4.044,3.78
				c-1.962,1.622-4.733,3.773-8.313,6.453c-3.58,2.681-8.356,6.133-14.328,10.36L2039.292,1327.938z"/>
			<path style="fill:#FFF6E1;" d="M2089.369,1472.326c-1.026-0.433-2.218-0.972-3.579-1.616c-1.362-0.646-2.742-1.37-4.142-2.173
				c-1.402-0.804-2.768-1.646-4.1-2.528c-1.333-0.881-2.501-1.817-3.502-2.808c-2.782-2.665-3.512-5.564-2.189-8.699l17.81-42.229
				c0.534-1.266,1.293-2.099,2.279-2.5c0.985-0.4,2.169-0.558,3.554-0.471c2.354,0.141,5.139,0.695,8.354,1.659
				c3.214,0.966,6.449,2.134,9.705,3.507c7.716,3.254,13.107,7.056,16.174,11.401c3.066,4.347,3.455,9.233,1.167,14.658
				c-1.144,2.713-2.914,4.719-5.307,6.017c-2.395,1.298-5.108,1.84-8.142,1.626c2.657,2.116,4.526,4.714,5.606,7.796
				c1.078,3.083,0.906,6.312-0.517,9.688c-2.517,5.968-6.595,9.45-12.233,10.444
				C2104.667,1477.091,2097.689,1475.835,2089.369,1472.326z M2098.175,1435.033l6.601,2.784c2.591,1.093,4.679,1.406,6.262,0.937
				c1.582-0.468,2.767-1.637,3.555-3.507c0.686-1.628,0.555-3.209-0.395-4.746c-0.95-1.536-2.781-2.877-5.493-4.021
				c-0.904-0.381-1.957-0.789-3.158-1.225c-1.201-0.435-2.159-0.732-2.872-0.892L2098.175,1435.033z M2088.869,1457.097
				c0.742,0.597,1.757,1.22,3.045,1.87c1.287,0.649,2.534,1.228,3.741,1.737c2.41,1.017,4.625,1.365,6.642,1.044
				c2.016-0.321,3.47-1.535,4.36-3.646c0.839-1.99,0.772-3.685-0.197-5.089c-0.971-1.403-2.812-2.677-5.525-3.821l-7.415-3.127
				L2088.869,1457.097z"/>
			<path style="fill:#FFF6E1;" d="M1879.446,1325.263c0.657-0.716,1.435-1.382,2.334-1.998c0.899-0.615,1.901-1.097,3.007-1.448
				c1.106-0.349,2.297-0.522,3.573-0.517c1.275,0.005,2.576,0.288,3.903,0.847c1.748,0.737,3.1,1.823,4.059,3.256
				c0.957,1.434,1.684,3.498,2.182,6.192l2.515,13.736l16.882-10.987c0.583-0.037,1.357,0.023,2.321,0.18
				c0.962,0.158,1.866,0.414,2.711,0.771c2.772,1.169,4.662,2.749,5.672,4.735c1.007,1.988,1.105,3.946,0.292,5.875
				c-0.712,1.689-1.786,3.011-3.218,3.968c-1.434,0.958-3.299,2.054-5.593,3.286l-14.119,7.466l5.853,27.286
				c-1.424,2.027-3.208,3.352-5.351,3.974c-2.144,0.622-4.573,0.361-7.286-0.783c-1.749-0.738-3.07-1.811-3.968-3.218
				c-0.898-1.407-1.565-3.446-2-6.116l-2.443-14.664l-18.64,12.376c-0.508-0.144-0.98-0.29-1.414-0.436
				c-0.435-0.149-0.864-0.311-1.285-0.489c-3.436-1.449-5.675-3.211-6.719-5.283c-1.043-2.073-1.132-4.134-0.268-6.184
				c0.737-1.748,1.755-3.111,3.056-4.09c1.3-0.978,3.011-2.049,5.136-3.213l14.643-8.203L1879.446,1325.263z"/>
			<path style="fill:#FFF6E1;" d="M1954.816,1472.171c1.278-0.17,3.073-0.089,5.382,0.246c2.308,0.335,4.517,0.947,6.628,1.837
				c3.013,1.271,5.496,2.834,7.45,4.686c1.951,1.853,2.864,3.854,2.741,6.002c-0.237,3.593-0.6,7.736-1.088,12.429
				c-0.488,4.693-1.034,9.523-1.637,14.487c-0.603,4.965-1.211,9.857-1.822,14.676c-0.613,4.819-1.166,9.078-1.66,12.774
				c-1.08,0.54-2.451,0.761-4.113,0.662c-1.663-0.099-3.489-0.566-5.479-1.405c-1.447-0.61-2.616-1.246-3.51-1.906
				c-0.892-0.661-1.555-1.365-1.984-2.115c-0.43-0.749-0.676-1.598-0.736-2.547c-0.063-0.948-0.028-1.999,0.104-3.151l1.004-6.926
				l-16.367-6.903c-1.246,1.605-2.516,3.271-3.811,4.996c-1.297,1.726-2.567,3.391-3.811,4.996
				c-0.972-0.055-1.968-0.175-2.992-0.356c-1.024-0.184-2.199-0.555-3.525-1.114c-3.074-1.297-5.128-2.785-6.16-4.462
				c-1.033-1.677-1.154-3.451-0.366-5.32c0.356-0.844,0.832-1.636,1.43-2.379c0.596-0.742,1.286-1.622,2.072-2.641
				c1.108-1.45,2.547-3.221,4.319-5.315c1.77-2.093,3.699-4.351,5.786-6.773c2.087-2.422,4.264-4.893,6.536-7.415
				c2.27-2.521,4.411-4.903,6.421-7.144c2.01-2.241,3.823-4.228,5.442-5.959C1952.687,1474.398,1953.936,1473.078,1954.816,1472.171
				z M1960.748,1488.412c-1.913,2.175-4.051,4.594-6.414,7.253c-2.365,2.661-4.643,5.41-6.834,8.248l11.213,4.729
				c0.528-3.612,1.01-7.153,1.446-10.627c0.435-3.473,0.812-6.597,1.131-9.375L1960.748,1488.412z"/>
			<g>
				<path style="fill:#31756C;" d="M805.214,1387.205c32.81-77.795,82.675-161.748,136.96-241.763
					c-25.012-33.337-39.415-73.843-40.855-115.736c-65.405,98.726-189.755,291.274-223.656,377.869
					c-23.701,60.539-33.388,112.925-28.792,155.704c4.424,41.183,21.979,71.196,52.176,89.206
					c31.274,18.649,74.044,22.058,117.353,9.353c22.645-6.643,52.538-19.688,84.169-45.264
					C811.303,1608.464,733.786,1556.567,805.214,1387.205z"/>
				<path style="fill:#31756C;" d="M1115.815,770.496c-18.611,6.336-46.585,21.907-76.669,59.95
					c45.37-15.479,96.316-15.128,143.895,4.705c14.363-16.572,26.33-30.08,35.145-39.921l-69.626-29.365
					C1143.77,765.376,1131.901,765.019,1115.815,770.496z"/>
			</g>
			<g>
				<path style="fill:#31756C;" d="M1946.518,1868.552c32.81-77.795,58.126-172.101,77.538-266.825
					c41.331-5.356,80.392-23.314,111.397-51.524c-25.048,115.746-76.143,339.189-114.494,423.908
					c-26.811,59.227-57.565,102.729-91.407,129.296c-32.58,25.577-66.326,33.954-100.3,24.899
					c-35.184-9.379-67.478-37.629-88.607-77.51c-11.048-20.853-22.571-51.365-26.333-91.868
					C1783.82,2018.624,1875.09,2037.913,1946.518,1868.552z"/>
				<path style="fill:#31756C;" d="M2171.366,1215.676c8.452,17.75,16.827,48.651,10.581,96.748
					c-20.582-43.294-56.392-79.534-103.804-99.762c1.842-21.853,3.163-39.85,4.058-53.032l69.626,29.365
					C2155.521,1192.083,2164.061,1200.334,2171.366,1215.676z"/>
			</g>
			<path style="fill:#00030F;" d="M2171.637,1506.711c0.034-0.056,0.068-0.111,0.103-0.166c1.707-2.783,3.349-5.608,4.923-8.475
				c0.144-0.261,0.285-0.524,0.428-0.786c0.649-1.195,1.288-2.397,1.914-3.606c0.122-0.236,0.247-0.47,0.368-0.707
				c0.714-1.393,1.414-2.794,2.097-4.205c0.134-0.277,0.264-0.556,0.397-0.834c0.549-1.148,1.088-2.301,1.617-3.46
				c0.178-0.391,0.356-0.781,0.532-1.173c0.639-1.423,1.268-2.852,1.875-4.292l0-0.001c0,0,0,0,0,0c0,0,0,0,0,0
				c0.629-1.492,1.237-2.991,1.829-4.495c0.242-0.614,0.471-1.23,0.707-1.845c0.33-0.862,0.66-1.725,0.978-2.59
				c0.301-0.817,0.59-1.636,0.879-2.455c0.22-0.625,0.441-1.251,0.655-1.878c0.338-0.988,0.667-1.977,0.99-2.967
				c0.128-0.393,0.254-0.787,0.379-1.182c0.38-1.192,0.751-2.385,1.108-3.581c0.012-0.04,0.023-0.08,0.035-0.121
				c5.49-18.421,8.226-37.146,8.411-55.684c0.006-0.488,0.014-0.975,0.016-1.462c0.002-0.781-0.004-1.561-0.01-2.341
				c-0.007-0.963-0.019-1.926-0.04-2.889c-0.01-0.417-0.021-0.834-0.033-1.251c-0.507-18.328-3.478-36.625-8.961-54.369
				c1.014-5.841,1.917-11.208,2.688-15.982c16.252-100.779-25.166-139.613-35.28-147.443l0.074-0.175l-0.678-0.286
				c-0.787-0.587-1.309-0.932-1.493-1.05l-0.542-0.347l-0.592-0.25c-0.964-0.406-1.417-1.521-1.011-2.486l4.663-11.057
				c4.333-10.275-0.5-22.159-10.775-26.493l-153.33-64.667c-15.049-6.347-32.457,0.732-38.804,15.782l-1.206,2.86
				c-0.402,0.952-1.471,1.405-2.435,1.032l-292.078-113.371l-18.976-8.003L1358.01,837.926c-0.94-0.429-1.362-1.511-0.96-2.464
				l1.206-2.86c6.347-15.049-0.732-32.456-15.782-38.803l-153.331-64.667c-10.274-4.333-22.159,0.5-26.492,10.775l-4.663,11.057
				c-0.407,0.964-1.521,1.418-2.486,1.011l-0.592-0.25l-0.626-0.145c-2.629-0.61-65.162-13.901-132.758,77.2
				c-2.86,3.855-6.075,8.249-9.569,13.079c-16.535,8.459-31.711,19.102-45.19,31.533c-0.306,0.281-0.611,0.563-0.915,0.846
				c-0.706,0.659-1.406,1.324-2.103,1.993c-0.562,0.538-1.123,1.077-1.68,1.623c-0.348,0.342-0.692,0.688-1.037,1.033
				c-13.148,13.075-24.65,28.107-34.011,44.899c-0.018,0.032-0.037,0.065-0.055,0.097c-0.608,1.092-1.204,2.192-1.794,3.299
				c-0.194,0.364-0.388,0.728-0.58,1.093c-0.484,0.922-0.963,1.849-1.435,2.782c-0.299,0.59-0.592,1.182-0.885,1.775
				c-0.385,0.781-0.771,1.562-1.147,2.35c-0.396,0.828-0.782,1.663-1.167,2.497c-0.277,0.601-0.56,1.198-0.832,1.803
				c-0.663,1.474-1.313,2.954-1.942,4.446c-0.608,1.441-1.193,2.89-1.766,4.341c-0.158,0.399-0.312,0.798-0.467,1.197
				c-0.462,1.19-0.913,2.384-1.352,3.582c-0.105,0.286-0.214,0.572-0.317,0.858c-0.534,1.477-1.051,2.958-1.55,4.444
				c-0.083,0.246-0.161,0.493-0.243,0.739c-0.432,1.301-0.849,2.605-1.255,3.913c-0.086,0.278-0.173,0.556-0.258,0.834
				c-0.957,3.135-1.836,6.29-2.639,9.462c-0.013,0.053-0.026,0.106-0.04,0.159c-2.294,9.093-3.962,18.325-4.975,27.646
				c-60.276,90.362-201.689,306.652-238.627,401.005c-24.589,62.809-34.594,117.573-29.739,162.776
				c4.885,45.473,25.428,80.222,59.408,100.486c4.885,2.914,10.005,5.494,15.339,7.743c32.713,13.795,73.25,15.053,113.919,3.121
				c52.518-15.407,101.678-50.634,142.165-101.875c34.221-43.309,92.448-60.009,173.063-49.634
				c66.897,8.609,147.831,34.891,247.439,80.369l0.199,0.09l0.204,0.08c102.078,39.587,177.401,79.204,230.259,121.101
				c63.697,50.49,92.379,103.844,85.249,158.578c-8.435,64.758,0.65,124.551,26.273,172.914
				c23.078,43.559,58.794,74.536,97.999,84.981c38.23,10.189,77.452,0.648,113.427-27.594
				c35.758-28.072,67.993-73.462,95.809-134.909c41.787-92.308,97.975-344.542,120.614-450.776
				C2161.285,1522.328,2166.729,1514.694,2171.637,1506.711z M2186.809,1394.815c0.005,0.206,0.015,0.411,0.02,0.617
				c0.024,0.976,0.031,1.954,0.041,2.932c0.15,18.519-2.418,37.032-7.694,54.914c-0.026,0.087-0.05,0.173-0.076,0.26
				c-0.334,1.127-0.683,2.25-1.039,3.372c-0.115,0.359-0.229,0.718-0.345,1.077c-0.306,0.945-0.62,1.888-0.941,2.83
				c-0.194,0.566-0.393,1.132-0.592,1.698c-0.276,0.784-0.553,1.568-0.84,2.349c-0.291,0.791-0.593,1.58-0.895,2.37
				c-0.224,0.586-0.443,1.173-0.673,1.757c-0.551,1.398-1.115,2.793-1.702,4.184l-0.001,0.001c-0.567,1.344-1.152,2.674-1.746,3.997
				c-0.168,0.375-0.34,0.748-0.51,1.122c-0.47,1.029-0.948,2.052-1.434,3.068c-0.152,0.319-0.303,0.639-0.457,0.957
				c-0.646,1.331-1.303,2.654-1.977,3.964c-0.021,0.041-0.043,0.082-0.064,0.123c-0.661,1.283-1.338,2.554-2.025,3.816
				c-0.123,0.225-0.246,0.449-0.37,0.674c-0.688,1.251-1.386,2.495-2.1,3.725c-0.016,0.028-0.032,0.056-0.048,0.084
				c-46.911,80.791-147.967,116.17-236.269,78.928c-95.795-40.401-140.86-151.205-100.459-246.999s151.205-140.86,246.999-100.459
				C2141.814,1255.784,2184.768,1323.203,2186.809,1394.815z M1970.371,1094.131l1.206-2.86c3.133-7.428,11.725-10.923,19.154-7.79
				l153.33,64.667c2.654,1.119,3.903,4.189,2.783,6.843l-4.663,11.057c-0.317,0.751-0.554,1.514-0.756,2.28l-171.892-72.496
				C1969.838,1095.286,1970.122,1094.722,1970.371,1094.131z M1171.808,756.792l4.663-11.057c1.119-2.654,4.189-3.902,6.842-2.783
				l153.331,64.667c7.428,3.133,10.923,11.725,7.79,19.153l-1.206,2.86c-0.249,0.591-0.454,1.188-0.633,1.788l-171.892-72.495
				C1171.111,758.246,1171.491,757.543,1171.808,756.792z M932.813,945.615c0.258-0.573,0.526-1.141,0.79-1.711
				c0.354-0.766,0.708-1.532,1.071-2.292c0.36-0.751,0.728-1.498,1.097-2.244c0.265-0.537,0.531-1.073,0.801-1.606
				c0.45-0.888,0.907-1.772,1.371-2.651c0.175-0.333,0.352-0.665,0.529-0.997c0.556-1.039,1.117-2.074,1.691-3.101
				c0.043-0.077,0.087-0.153,0.13-0.23c9.121-16.255,20.581-31.012,33.942-43.828c0.713-0.682,1.424-1.366,2.147-2.036
				c0.146-0.136,0.295-0.268,0.441-0.404c52.708-48.529,130.974-64.829,201.181-35.22c95.795,40.401,140.86,151.205,100.459,247
				s-151.205,140.86-247,100.458c-88.302-37.241-133.5-134.303-108.387-224.287c0.009-0.031,0.018-0.062,0.026-0.092
				c0.384-1.372,0.788-2.742,1.204-4.11c0.074-0.241,0.147-0.483,0.221-0.724c0.425-1.378,0.864-2.753,1.323-4.127
				c0.013-0.041,0.026-0.081,0.04-0.122c0.468-1.397,0.957-2.792,1.459-4.184c0.12-0.332,0.244-0.662,0.365-0.993
				c0.389-1.059,0.788-2.116,1.198-3.172c0.148-0.382,0.295-0.764,0.446-1.145c0.533-1.35,1.078-2.698,1.645-4.043
				C931.592,948.364,932.197,946.985,932.813,945.615z M2021.043,1974.147c-26.812,59.227-57.565,102.728-91.408,129.296
				c-32.58,25.576-66.325,33.954-100.3,24.899c-35.184-9.381-67.478-37.629-88.608-77.51
				c-16.847-31.799-34.799-86.056-24.652-163.954c7.857-60.322-22.695-118.282-90.806-172.271
				c-54.018-42.818-130.545-83.138-233.949-123.252c-100.897-46.047-183.189-72.711-251.555-81.51
				c-86.203-11.093-149.034,7.483-186.747,55.212c-48.703,61.638-100.088,86.651-134.619,96.781
				c-43.308,12.705-86.078,9.296-117.353-9.353c-30.198-18.01-47.753-48.023-52.176-89.206
				c-4.596-42.779,5.091-95.165,28.792-155.704c33.901-86.595,158.251-279.143,223.656-377.869
				c2.641,76.867,48.916,149.07,124.316,180.87c103.416,43.616,223.034-5.035,266.65-108.45
				c43.616-103.416-5.035-223.034-108.451-266.65c-47.804-20.162-99.066-20.594-144.688-5.029
				c30.084-38.043,58.058-53.614,76.669-59.95c16.086-5.477,27.956-5.12,32.745-4.63l203.332,85.756L1636.93,981.65l19.382,8.177
				l292.376,113.49c0.473,0.184,0.95,0.336,1.427,0.475l-0.047,0.11l201.834,85.124c3.721,3.109,12.25,11.361,19.548,26.685
				c8.453,17.75,16.827,48.652,10.582,96.749c-20.696-43.535-56.786-79.944-104.591-100.106
				c-103.415-43.615-223.034,5.035-266.65,108.451c-43.616,103.416,5.036,223.034,108.451,266.649
				c75.4,31.8,159.405,14.543,216.295-37.217C2110.489,1665.985,2059.394,1889.427,2021.043,1974.147z"/>
			
				<ellipse transform="matrix(0.3886 -0.9214 0.9214 0.3886 -170.875 2168.6917)" style="fill:#FFF6E1;" cx="1548.728" cy="1213.105" rx="18.217" ry="31.012"/>
			<path style="fill:#31756C;" d="M1518.391,945.173c-33.997,80.61-13.957,170.65,43.718,230.726
				c1.169,0.416,2.334,0.859,3.491,1.347l0.341,0.145l0.287,0.12c13.897,5.861,24.679,16.03,31.486,28.295
				c11.565,7.77,24.04,14.561,37.372,20.184c29.014,12.237,59.153,17.758,88.652,17.285l-13.18-5.559
				c-19.236-8.113-28.285-30.363-20.172-49.599c8.113-19.236,30.363-28.285,49.599-20.172l52.22,22.024
				c13.317,5.616,21.745,18.008,22.984,31.484c44.648-21.729,81.773-58.875,102.448-107.897c2.722-6.454,5.087-12.97,7.125-19.525
				l-268.45-104.203l-19.382-8.177l-111.764-50.984C1522.747,935.378,1520.483,940.213,1518.391,945.173z"/>
			<path style="fill:#31756C;" d="M1843.012,1643.195c14.222-30.899,33.033-51.669,54.235-66.621
				c-88.095-50.326-126.85-159.991-86.456-255.769c4.701-11.145,10.288-21.65,16.639-31.476
				c-28.959,21.625-50.375,53.823-60.463,85.486c-8.898,27.925-13.957,46.322-19.747,57.272
				c66.038,34.482,95.751,114.705,66.296,184.545c-31.022,73.556-116.104,108.16-189.659,77.138
				c-73.556-31.022-108.159-116.103-77.137-189.659c0.163-0.386,0.336-0.765,0.502-1.148
				c-32.112,24.033-36.971,77.847-67.554,64.192c-38.029-16.98-176.567-61.287-147-109.071
				c12.914-20.87,17.565-38.758,18.343-54.953c-1.563,5.391-3.446,10.749-5.679,16.045
				c-31.022,73.556-116.103,108.16-189.659,77.138c-46.38-19.561-77.263-60.616-85.984-106.72
				c-11.416,16.41-24.653,34.451-40.439,53.499c-31.836,38.414-45.904,72.004-51.654,97.651
				c38.21-29.458,92.566-39.856,162.17-30.899c68.366,8.799,150.658,35.463,251.555,81.51
				c103.404,40.114,179.932,80.434,233.949,123.252c53.476,42.388,83.787,87.225,90.547,133.731
				c1.257-31.059-7.138-70.386,18.185-87.303C1772.013,1735.641,1809.264,1716.518,1843.012,1643.195z"/>
			<path style="fill:#31756C;" d="M1514.359,1321.941c36.86,15.546,79.343-1.733,94.889-38.593
				c10.275-24.362,6.202-51.175-8.378-71.048c6.51,15.552,7.027,33.598-0.026,50.322c-13.922,33.009-52.103,48.538-85.111,34.616
				l-0.315-0.134l-0.313-0.131c-28.5-12.02-43.951-42.124-38.684-71.37c-0.217,0.484-0.448,0.958-0.655,1.449
				C1460.221,1263.912,1477.499,1306.396,1514.359,1321.941z"/>
		</g>
		<path style="fill:#F2A286;" d="M1033.289,1684.142c7.927-14.158,15.029-28.765,21.009-43.861
			c2.834-7.156,5.742-14.498,8.411-21.894l-0.003-16.108c0.165-1.914,0.434-3.803,0.792-5.667c-1.122-1.305-1.813-2.992-1.822-4.848
			c-0.387-97.048-27.359-160.268-49.916-196.208c-16.867-26.888-33.835-42.933-42.793-50.335c-2.402,4.305-4.87,8.614-7.438,12.926
			c-31.575,53.071-64.631,88.294-66.02,89.759c-2.844,3.012-7.59,3.148-10.601,0.304c-3.012-2.844-3.148-7.59-0.304-10.601
			c0.331-0.349,33.473-35.698,64.212-87.428c28.087-47.271,59.888-118.349,51.873-188.486
			c-4.354-38.183-20.059-72.612-46.827-102.916l-51.518,82.472c-9.141,14.649-23.451,24.828-40.296,28.664
			c-13.289,3.023-26.875,1.808-39.185-3.383c-0.958-0.404-1.914-0.84-2.871-1.298c-45.477,74.709-84.732,146.583-72.251,185.362
			c23.521,73.052,47.06,221.637,46.645,294.416c-0.183,32.189,22.295,69.756,64.998,108.647
			c25.204,22.959,56.207,45.233,90.267,65.063C973.316,1771.398,1005.663,1729.161,1033.289,1684.142z"/>
		<path style="fill:#D26159;" d="M960.048,1058.033c0,0,7.141,92.451-37.357,197.957c-44.497,105.506-101.471,128.237-91.89,196.298
			s12.086,54.681,68.601-21.279c56.514-75.96,99.031-11.583,108.631,72.804c9.6,84.387-5.997,131.786-29.022,168.521
			c-23.025,36.735,32.907,44.006,65.596-15.642s34.486-63.911,27.105-105.938c-7.381-42.027-25.931-124.54-57.914-166.272
			c-31.983-41.733-48.585-49.99-48.585-49.99s23.931-50.788,25.953-55.584c2.023-4.796,14.332-42.911,17.192-86.896
			C1011.218,1148.027,1001.662,1084.371,960.048,1058.033z"/>
		<path style="fill:#D9EBFF;" d="M922.466,1019.901c0,0,27.484,12.219,26.129,27.339c-1.356,15.119-44.962,84.285-56.583,96.957
			c-11.621,12.673-21.449,16.628-38.698,16.601c-17.249-0.027-39.546-7.506-40.989-8.471
			c-1.443-0.965,79.493-120.773,82.922-125.183c3.429-4.41,7.025-12.936,10.967-14.098
			C910.156,1011.885,922.466,1019.901,922.466,1019.901z"/>
		<path style="fill:#00030F;" d="M1004.126,1847.077c-55.197-25.504-106.606-58.679-144.743-93.42
			c-42.703-38.891-65.181-76.459-64.998-108.647c0.415-72.779-23.125-221.364-46.645-294.416
			c-12.482-38.778,26.774-110.652,72.251-185.362c0.957,0.458,1.913,0.894,2.871,1.298c12.31,5.192,25.896,6.407,39.185,3.383
			c16.844-3.836,31.155-14.015,40.296-28.664l51.518-82.472c26.768,30.304,42.473,64.733,46.827,102.916
			c8.014,70.137-23.786,141.215-51.873,188.486c-30.739,51.731-63.88,87.08-64.212,87.428c-2.844,3.012-2.707,7.758,0.304,10.601
			c3.012,2.844,7.758,2.708,10.601-0.304c1.389-1.466,34.444-36.688,66.02-89.759c2.567-4.311,5.036-8.621,7.438-12.926
			c8.957,7.403,25.926,23.448,42.793,50.335c22.556,35.94,49.529,99.16,49.916,196.208c0.016,3.1,1.904,5.752,4.595,6.887
			c0.903,0.381,1.889,0.59,2.933,0.586c4.144-0.021,7.494-3.384,7.473-7.528c-0.398-101.166-28.913-167.316-52.752-205.002
			c-19.285-30.469-38.505-47.713-47.725-54.955c11.519-22.242,20.708-44.185,27.387-65.528
			c11.73-37.488,15.767-73.206,12.018-106.185c-5.078-44.522-24.245-84.2-57.164-118.498c-0.18-0.217-0.386-0.423-0.605-0.624
			c-7.535-7.79-15.779-15.315-24.733-22.543l-14.638-11.123c-3.087-2.203-6.239-4.379-9.46-6.519
			c-1.779-1.185-3.99-1.553-6.066-1.006c-2.076,0.546-3.808,1.953-4.778,3.867c-18.256,36.081-43.502,76.899-67.921,116.372
			c-58.348,94.319-113.459,183.404-96.773,235.221c23.148,71.928,46.328,218.148,45.917,289.735
			c-0.201,36.555,23.965,77.993,69.897,119.83c39.246,35.74,92.003,69.809,148.563,95.943c1.363,0.629,2.714,1.286,4.053,1.97
			c2.735-3.937,5.557-8.108,8.473-12.5C1008.325,1849.087,1006.242,1848.056,1004.126,1847.077z M842.991,1127.863
			c22.896-37.022,46.528-75.221,64.647-109.895c13.244,9.308,25.094,19.168,35.574,29.547l-53.589,85.787
			c-7.018,11.236-17.995,19.044-30.904,21.989c-10.48,2.385-21.192,1.329-30.843-2.936
			C832.892,1144.191,837.947,1136.013,842.991,1127.863z"/>
		<path style="fill:#D9EBFF;" d="M1887.609,1042.799c-3.316-5.306-9.968-13.246-22.829-20.937
			c-21.694-12.975-48.561-1.726-51.665,3.088c-19.181,41.563-22.964,66.119-23.659,75.673c21.451,22.437,45.834,23.747,52.17,22.236
			c17.898-19.542,38.229-56.825,46.26-72.192l0,0C1889.19,1048.174,1889.084,1045.159,1887.609,1042.799z"/>
		<path style="fill:#F2A286;" d="M1683.556,856.29c-6.707-3.676-13.525-6.963-20.355-9.843
			c-36.849-15.541-74.129-19.293-97.317-8.936c-13.73,6.132-22.515,17.052-26.111,32.456
			c-11.389,48.787-17.292,168.528,20.672,224.238c11.166,16.385,25.469,25.957,42.51,28.448c44.578,6.515,70.375-1.989,84.165-10.27
			c14.56-8.742,18.957-18.771,19.137-19.194l0.07-0.172l0.049-0.099c30.2-65.552,41.59-119.647,33.854-160.782
			C1733.911,898.536,1715.374,873.726,1683.556,856.29z M1693.663,1098.141l-0.928,1.035c-11.887,13.252-55.56,25.532-102.77,5.621
			c-2.066-0.871-4.132-1.802-6.21-2.799l-2.66-1.277l-1.122-2.861c-4.918-12.529-16.047-49.881-13.162-125.944
			c0.402-8.439,7.86-19.384,19.953-29.352c9.55-7.872,35.337-25.661,68.449-20.848c25.12,3.653,41.168,12.076,50.208,18.497
			c8.578,6.093,13.337,16.419,12.419,26.946c-2.298,26.36-9.207,91.764-23.682,129.684L1693.663,1098.141z"/>
		<path style="fill:#D9EBFF;" d="M1696.734,952.442c-7.695-5.468-21.519-12.66-43.679-15.882
			c-27.179-3.951-48.741,10.977-56.75,17.579c-10.614,8.75-14.407,16.312-14.507,18.419c-2.628,69.309,6.863,104.907,11.163,117.184
			c44.273,20.025,80.061,6.686,87.756,0.23c13.413-36.394,19.968-98.742,22.18-124.116
			C1703.354,960.607,1700.993,955.467,1696.734,952.442z"/>
		<path style="fill:#F2A286;" d="M1891.13,951.061c-13.758-12.383-28.963-22.078-43.552-28.231
			c-15.161-6.394-29.659-8.967-41.192-6.766c-11.169,2.132-19.19,8.389-24.522,19.127c-17.305,34.854-43.134,124.253-24.424,172.972
			c5.46,14.219,14.078,23.474,26.309,28.327c60.671,23.994,81.108-2.212,81.948-3.339l0.158-0.237l0.006,0.018
			c34.515-44.177,52.764-82.971,54.24-115.304C1921.296,991.456,1911.82,969.682,1891.13,951.061z M1901.181,1057.615
			L1901.181,1057.615c-8.501,16.266-30.376,56.313-49.856,76.837l-0.956,1.009l-1.255,0.598c-7.342,3.5-22.956,3.311-39.903-3.836
			c-11.071-4.669-22.709-12.305-32.99-23.825l-1.966-2.203l0.063-2.951c0.197-9.52,3.049-36.648,25.239-84.713
			c4.105-8.668,17.823-13.405,21.93-14.652c8.466-2.57,30.372-7.224,50.992,5.108c15.426,9.226,23.66,19.156,27.85,25.862
			C1904.612,1041.702,1904.938,1050.425,1901.181,1057.615z"/>
		<path style="fill:#00030F;" d="M1901.166,939.912c-24.192-21.772-64.265-44.941-97.592-38.581
			c-15.642,2.985-27.796,12.388-35.145,27.191c-3.05,6.142-6.916,15.355-10.907,26.599c-0.172-9.015-1.018-17.606-2.551-25.757
			c-7.101-37.76-28.703-66.771-64.206-86.228c-36.097-19.781-92.064-36.711-130.999-19.321c-17.983,8.032-29.948,22.812-34.6,42.742
			c-5.123,21.945-10.434,64.532-8.543,112.332c1.488,37.606,8.148,89.603,31.426,123.763c9.66,14.176,21.385,24.192,35.006,29.936
			c5.593,2.359,11.51,3.998,17.731,4.907c94.736,13.844,117.465-34.194,119.267-38.418c6.037-13.11,11.341-25.801,15.924-38.069
			c-0.474,18.972,1.555,37.161,7.458,52.534c6.766,17.617,18.034,29.846,33.507,36.372c0.426,0.179,0.857,0.356,1.289,0.527
			c70.323,27.812,97.051-5.044,99.515-8.357c36.427-46.645,55.718-88.288,57.338-123.77
			C1936.479,987.801,1925.066,961.423,1901.166,939.912z M1706.375,1092.917l-0.049,0.099l-0.07,0.172
			c-0.179,0.423-4.577,10.452-19.137,19.194c-13.79,8.281-39.587,16.784-84.165,10.27c-17.041-2.491-31.343-12.062-42.51-28.448
			c-37.964-55.71-32.061-175.45-20.672-224.238c3.596-15.404,12.381-26.324,26.111-32.456c23.188-10.357,60.467-6.606,97.317,8.936
			c6.831,2.881,13.648,6.167,20.355,9.843c31.818,17.436,50.355,42.246,56.674,75.846
			C1747.966,973.27,1736.575,1027.365,1706.375,1092.917z M1865.861,1132.932l-0.006-0.018l-0.158,0.237
			c-0.84,1.127-21.278,27.334-81.948,3.339c-12.231-4.853-20.849-14.108-26.309-28.327c-18.71-48.719,7.12-138.119,24.424-172.972
			c5.332-10.739,13.353-16.996,24.522-19.127c11.533-2.201,26.031,0.372,41.192,6.766c14.589,6.153,29.794,15.847,43.552,28.231
			c20.69,18.621,30.166,40.395,28.971,66.567C1918.625,1049.961,1900.376,1088.755,1865.861,1132.932z"/>
		<path style="fill:#00030F;" d="M1705.421,940.213c-9.04-6.421-25.088-14.844-50.208-18.497
			c-33.112-4.813-58.899,12.976-68.449,20.848c-12.092,9.968-19.55,20.913-19.953,29.352
			c-2.885,76.063,8.243,113.415,13.162,125.944l1.122,2.861l2.66,1.277c2.078,0.997,4.144,1.927,6.21,2.799
			c47.209,19.911,90.883,7.631,102.77-5.621l0.928-1.035l0.496-1.298c14.475-37.92,21.384-103.324,23.682-129.684
			C1718.758,956.632,1713.999,946.307,1705.421,940.213z M1592.96,1089.742c-4.3-12.277-13.791-47.874-11.163-117.184
			c0.1-2.107,3.893-9.669,14.507-18.419c8.009-6.601,29.57-21.529,56.75-17.579c22.161,3.222,35.984,10.414,43.679,15.882
			c4.259,3.025,6.62,8.165,6.162,13.414c-2.212,25.374-8.767,87.722-22.18,124.116
			C1673.022,1096.427,1637.233,1109.767,1592.96,1089.742z"/>
		<path style="fill:#00030F;" d="M1900.33,1034.85c-4.19-6.706-12.424-16.636-27.85-25.862c-20.62-12.332-42.527-7.678-50.992-5.108
			c-4.107,1.247-17.825,5.984-21.93,14.652c-22.191,48.064-25.042,75.193-25.239,84.713l-0.063,2.951l1.966,2.203
			c10.281,11.52,21.918,19.156,32.99,23.825c16.947,7.147,32.562,7.336,39.903,3.836l1.255-0.598l0.956-1.009
			c19.48-20.525,41.355-60.571,49.856-76.837l0,0C1904.938,1050.425,1904.612,1041.702,1900.33,1034.85z M1887.887,1050.668
			L1887.887,1050.668c-8.031,15.366-28.362,52.649-46.26,72.192c-6.336,1.511-30.719,0.201-52.17-22.236
			c0.695-9.554,4.478-34.111,23.659-75.673c3.104-4.814,29.971-16.063,51.665-3.088c12.861,7.691,19.513,15.631,22.829,20.937
			C1889.084,1045.159,1889.19,1048.174,1887.887,1050.668z"/>
		<path style="fill:#D26159;" d="M1728.75,899.482c-12.391-15.019-33.8-32.309-68.569-37.141
			c-64.922-9.022-92.048,37.437-93.537,65.524c-1.375,25.939,27.508-16.056,56.399-4.155c9.529-2.548,20.381-3.707,32.169-1.994
			c25.12,3.653,41.168,12.076,50.208,18.497c8.578,6.093,13.337,16.419,12.419,26.946c-2.298,26.36-9.207,91.764-23.682,129.684
			l-0.496,1.298l-0.928,1.035c-11.887,13.252-55.56,25.532-102.77,5.621c-2.066-0.871-4.132-1.802-6.21-2.799l-2.66-1.277
			l-1.122-2.861c-1.205-3.071-2.784-7.636-4.438-13.893c-4.599-4.426-10.023-13.943-14.71-29.575
			c-9.107-30.37-18.282-4.934-9.179,24.181c2.63,5.62,5.55,10.865,8.799,15.632c11.166,16.385,25.469,25.957,42.51,28.448
			c44.578,6.515,70.375-1.989,84.165-10.27c14.56-8.742,18.957-18.771,19.137-19.194l0.07-0.172l0.049-0.099
			c30.2-65.552,41.59-119.647,33.854-160.782C1737.976,920.153,1734.16,909.293,1728.75,899.482z"/>
		<path style="fill:#D26159;" d="M1891.13,951.061c-6.916-6.225-14.197-11.768-21.582-16.526
			c-6.746-0.268-11.767,3.839-8.707,19.025c7.153,35.497-0.165,30.528,10.201,40.549c10.366,10.021-6.019,3.11-24.193-2.907
			c-18.174-6.017-45.766,9.177-52.542,29.15c-6.776,19.973-21.88,52.438-23.961,66.859c-1.483,10.28-9.074,17.736-14.863,15.15
			c0.591,1.989,1.237,3.929,1.956,5.803c5.46,14.219,14.078,23.474,26.309,28.327c60.671,23.994,81.108-2.212,81.948-3.339
			l0.158-0.237l0.006,0.018c34.515-44.177,52.764-82.971,54.24-115.304C1921.296,991.456,1911.82,969.682,1891.13,951.061z
			 M1901.181,1057.615L1901.181,1057.615c-8.501,16.266-30.376,56.313-49.856,76.837l-0.956,1.009l-1.255,0.598
			c-7.342,3.5-22.956,3.311-39.903-3.836c-11.071-4.669-22.709-12.305-32.99-23.825l-1.966-2.203l0.063-2.951
			c0.197-9.52,3.049-36.648,25.239-84.713c4.105-8.668,17.823-13.405,21.93-14.652c8.466-2.57,30.372-7.224,50.992,5.108
			c15.426,9.226,23.66,19.156,27.85,25.862C1904.612,1041.702,1904.938,1050.425,1901.181,1057.615z"/>
		<path style="fill:#FFCDA7;" d="M966.808,1787.437c-18.519-5.63-40.259-12.187-71.576-29.93
			c-58.511-33.15,18.056-78.529,39.897-152.637c21.841-74.108-38.805-92.154-62.992-69.404
			c-24.188,22.75-35.785,65.874-49.669,28.479c-13.885-37.395-17.528-66.705-24.801-113.08
			c-7.273-46.375-29.866-122.277-18.405-149.453c11.462-27.176,40.159-97.451,57.455-100.513
			c17.296-3.061,41.093-4.793,65.96-38.084c20.977-28.083,32.884-61.665,28.732-68.092l-29.063,46.525
			c-9.141,14.649-23.451,24.828-40.296,28.664c-13.289,3.023-26.875,1.808-39.185-3.383c-0.958-0.404-1.914-0.84-2.871-1.298
			c-45.477,74.709-84.732,146.583-72.251,185.362c23.521,73.052,47.06,221.637,46.645,294.416
			c-0.183,32.189,22.295,69.756,64.998,108.647c25.204,22.959,56.207,45.233,90.267,65.063
			C954.979,1808.063,960.751,1797.667,966.808,1787.437z"/>
	</g>
</g>
</svg>
